HIERARCHY
ROOT Hips
{
	OFFSET 0.000000 0.000000 0.000000
	CHANNELS 6 Xposition Yposition Zposition Zrotation Yrotation Xrotation 
	JOINT LowerBack
	{
		OFFSET 0.000000 0.000000 0.000000
		CHANNELS 3 Zrotation Yrotation Xrotation
		JOINT Spine
		{
			OFFSET 0.028270 2.035590 -0.193380
			CHANNELS 3 Zrotation Yrotation Xrotation
			JOINT Spine1
			{
				OFFSET 0.056720 2.048850 -0.042750
				CHANNELS 3 Zrotation Yrotation Xrotation
				JOINT Neck
				{
					OFFSET 0.000000 0.000000 0.000000
					CHANNELS 3 Zrotation Yrotation Xrotation
					JOINT Neck1
					{
						OFFSET -0.054170 1.746240 0.172020
						CHANNELS 3 Zrotation Yrotation Xrotation
						JOINT Head
						{
							OFFSET 0.104070 1.761360 -0.123970
							CHANNELS 3 Zrotation Yrotation Xrotation
							End Site
							{
								OFFSET 0.000000 0.000000 0.000000
							}
						}
					}
				}
				JOINT LeftShoulder
				{
					OFFSET 0.000000 0.000000 0.000000
					CHANNELS 3 Zrotation Yrotation Xrotation
					JOINT LeftArm
					{
						OFFSET 3.362410 1.200890 -0.311210
						CHANNELS 3 Zrotation Yrotation Xrotation
						JOINT LeftForeArm
						{
							OFFSET 4.983000 -0.000000 -0.000000
							CHANNELS 3 Zrotation Yrotation Xrotation
							JOINT LeftHand
							{
								OFFSET 3.483560 -0.000000 -0.000000
								CHANNELS 3 Zrotation Yrotation Xrotation
								JOINT LeftFingerBase
								{
									OFFSET 0.000000 0.000000 0.000000
									CHANNELS 3 Zrotation Yrotation Xrotation
									JOINT LeftHandIndex1
									{
										OFFSET 0.715260 -0.000000 -0.000000
										CHANNELS 3 Zrotation Yrotation Xrotation
										End Site
										{
											OFFSET 0.000000 0.000000 0.000000
										}
									}
								}
								JOINT LThumb
								{
									OFFSET 0.000000 0.000000 0.000000
									CHANNELS 3 Zrotation Yrotation Xrotation
									End Site
									{
										OFFSET 0.000000 0.000000 0.000000
									}
								}
							}
						}
					}
				}
				JOINT RightShoulder
				{
					OFFSET 0.000000 0.000000 0.000000
					CHANNELS 3 Zrotation Yrotation Xrotation
					JOINT RightArm
					{
						OFFSET -3.136600 1.374050 -0.404650
						CHANNELS 3 Zrotation Yrotation Xrotation
						JOINT RightForeArm
						{
							OFFSET -5.241900 -0.000000 -0.000000
							CHANNELS 3 Zrotation Yrotation Xrotation
							JOINT RightHand
							{
								OFFSET -3.444170 -0.000000 -0.000000
								CHANNELS 3 Zrotation Yrotation Xrotation
								JOINT RightFingerBase
								{
									OFFSET 0.000000 0.000000 0.000000
									CHANNELS 3 Zrotation Yrotation Xrotation
									JOINT RightHandIndex1
									{
										OFFSET -0.622530 -0.000000 -0.000000
										CHANNELS 3 Zrotation Yrotation Xrotation
										End Site
										{
											OFFSET 0.000000 0.000000 0.000000
										}
									}
								}
								JOINT RThumb
								{
									OFFSET 0.000000 0.000000 0.000000
									CHANNELS 3 Zrotation Yrotation Xrotation
									End Site
									{
										OFFSET 0.000000 0.000000 0.000000
									}
								}
							}
						}
					}
				}
			}
		}
	}
}
}
MOTION
Frames: 9
Frame Time: 0.008333
4.928687 15.676257 0.572805 94.849627 -87.758489 -63.581221 -2.989232 -2.648423 -3.417431 -1.044602 -2.464696 -4.729101 -4.781733 -2.457656 -5.756608 5.556082 0.408712 -0.687847 -1.907395 -0.227612 1.718715 0.000000 0.000000 0.000000 8.183910 0.951470 -0.938723 -70.150684 -54.501710 5.366318 179.123372 -78.252850 179.863484 7.573932 -5.464755 -0.423616 0.075555 1.005614 -0.000000 0.000000 0.000000 0.000000 0.000000 0.000000 0.000000 0.159371 3.406438 -2.208204 72.058797 50.795900 -5.084092 -178.462835 80.274882 179.776156 -10.791894 16.735020 -1.677416 -0.131694 -1.044172 -0.000000 0.000000 0.000000 0.000000 0.000000 0.000000 0.000000 
4.913632 15.661902 0.514245 104.857512 -87.616940 -73.848332 -2.960362 -2.824909 -3.713112 -1.021333 -2.645098 -4.766133 -4.768804 -2.637519 -5.679472 5.518928 -0.058309 -1.093126 -1.960670 -0.225848 1.613299 0.000000 0.000000 0.000000 8.598639 0.748527 -0.785829 -68.499106 -53.185134 3.614868 179.204230 -79.351131 179.862469 7.796578 -5.324532 -0.426648 0.063489 0.995024 -0.000000 0.000000 0.000000 0.000000 0.000000 0.000000 0.000000 0.570683 3.008211 -2.100020 72.481697 51.690451 -3.712961 -178.758011 83.420038 179.777784 -10.899030 16.490429 -1.668026 -0.134250 -1.022496 -0.000000 0.000000 0.000000 0.000000 0.000000 0.000000 0.000000 
4.896293 15.650656 0.454053 114.345865 -87.348591 -83.625151 -2.971174 -3.008256 -4.036725 -1.003660 -2.829056 -4.808151 -4.754253 -2.822928 -5.596879 5.483085 -0.535818 -1.500959 -2.015722 -0.224295 1.508291 0.000000 0.000000 0.000000 9.046521 0.509714 -0.632616 -66.844541 -51.630454 1.902396 179.291837 -80.518871 179.862025 8.010215 -5.150659 -0.426072 0.050736 0.982291 0.000000 0.000000 0.000000 0.000000 0.000000 0.000000 0.000000 0.999275 2.610769 -1.981838 73.053928 52.640240 -2.061704 -179.084923 86.794834 179.779493 -11.025517 16.290212 -1.665731 -0.135345 -1.001176 -0.000000 0.000000 0.000000 0.000000 0.000000 0.000000 0.000000 
4.876913 15.643269 0.392496 123.125864 -86.953931 -92.729950 -3.011837 -3.188174 -4.382583 -0.990422 -3.006908 -4.854205 -4.738645 -3.004337 -5.508257 5.449397 -1.018842 -1.910283 -2.071784 -0.222897 1.403844 0.000000 0.000000 0.000000 9.523608 0.237736 -0.475953 -65.215662 -49.823977 0.266354 179.385436 -81.752458 179.862573 8.192581 -4.927550 -0.419388 0.037697 0.966801 0.000000 0.000000 0.000000 0.000000 0.000000 0.000000 0.000000 1.439675 2.227644 -1.853651 73.790902 53.633743 -0.108144 0.561163 89.614231 -0.218400 -11.152191 16.136001 -1.667831 -0.134968 -0.980185 -0.000000 0.000000 0.000000 0.000000 0.000000 0.000000 0.000000 
4.855448 15.640352 0.329970 130.877258 -86.441585 -100.843313 -3.061944 -3.359431 -4.749823 -0.978452 -3.175015 -4.904211 -4.723569 -3.177933 -5.411995 5.419266 -1.501254 -2.319753 -2.128303 -0.221615 1.300249 0.000000 0.000000 0.000000 10.021367 -0.067094 -0.310861 -63.643756 -47.756535 -1.254054 179.484087 -83.048844 179.864494 8.321514 -4.641528 -0.404497 0.024680 0.948023 0.000000 0.000000 0.000000 0.000000 0.000000 0.000000 0.000000 1.887110 1.870418 -1.716560 74.702048 54.650509 2.165816 0.188447 85.822049 -0.215519 -11.256942 16.024044 -1.670628 -0.133139 -0.959281 -0.000000 0.000000 0.000000 0.000000 0.000000 0.000000 0.000000 
4.832210 15.642715 0.266655 137.673134 -85.816496 -108.045424 -3.105289 -3.515487 -5.130831 -0.966061 -3.328119 -4.956832 -4.711148 -3.338010 -5.307863 5.396631 -1.974735 -2.727047 -2.184958 -0.220433 1.197896 0.000000 0.000000 0.000000 10.529600 -0.404387 -0.131639 -62.154105 -45.427479 -2.624263 179.585460 -84.405573 179.868085 8.376210 -4.283904 -0.379802 0.011972 0.925540 0.000000 0.000000 0.000000 0.000000 0.000000 0.000000 0.000000 2.341532 1.553809 -1.572575 75.787915 55.666009 4.767911 -0.191114 81.849502 -0.211458 -11.315424 15.946209 -1.669919 -0.129937 -0.938101 -0.000000 0.000000 0.000000 0.000000 0.000000 0.000000 0.000000 
4.807263 15.651005 0.202713 143.544659 -85.087044 -114.369339 -3.126706 -3.653252 -5.519803 -0.951768 -3.464361 -5.011090 -4.704025 -3.482159 -5.195717 5.385938 -2.429326 -3.128918 -2.241617 -0.219363 1.097428 0.000000 0.000000 0.000000 11.034854 -0.774032 0.068061 -60.769566 -42.843137 -3.812131 179.686427 -85.823296 179.873526 8.339344 -3.850265 -0.344905 -0.000245 0.899057 0.000000 0.000000 0.000000 0.000000 0.000000 0.000000 0.000000 2.804386 1.291430 -1.425428 77.040504 56.648526 7.693548 -0.562106 77.723204 -0.205798 -11.301767 15.887531 -1.660205 -0.125492 -0.916116 -0.000000 0.000000 0.000000 0.000000 0.000000 0.000000 0.000000 
4.780875 15.665847 0.138235 148.547615 -84.263541 -119.874062 -3.116340 -3.771545 -5.909889 -0.934983 -3.583311 -5.065911 -4.704727 -3.609388 -5.076688 5.391436 -2.852947 -3.520802 -2.298133 -0.218438 0.999852 0.000000 0.000000 0.000000 11.521894 -1.174984 0.293689 -59.509232 -40.019854 -4.790448 179.782638 -87.304655 179.880858 8.197431 -3.341528 -0.300512 -0.011818 0.868449 0.000000 0.000000 0.000000 0.000000 0.000000 0.000000 0.000000 3.277328 1.096704 -1.280448 78.441310 57.561377 10.919308 -0.906916 73.475585 -0.198157 -11.189592 15.827918 -1.635887 -0.120037 -0.892717 -0.000000 0.000000 0.000000 0.000000 0.000000 0.000000 0.000000 
4.753289 15.687712 0.073243 152.744916 -83.357898 -124.625284 -3.070921 -3.870634 -6.292945 -0.916127 -3.685401 -5.119973 -4.715450 -3.719657 -4.952815 5.416417 -3.232238 -3.897500 -2.354366 -0.217704 0.906334 0.000000 0.000000 0.000000 11.974990 -1.603372 0.549164 -58.388233 -36.983882 -5.537091 179.868843 -88.856583 179.889980 7.941433 -2.762577 -0.248528 -0.022636 0.833733 0.000000 0.000000 0.000000 0.000000 0.000000 0.000000 0.000000 3.761848 0.981769 -1.143903 79.961320 58.364910 14.399070 -1.207547 69.145612 -0.188219 -10.952018 15.742028 -1.590467 -0.113904 -0.867244 -0.000000 0.000000 0.000000 0.000000 0.000000 0.000000 0.000000 
